Coordinates
version=1
nRows=65
nColumns=12
inDegrees=yes

Units are S.I. units (second, meters, Newtons, ...)
Angles are in degrees

endheader
time	SC_y	SC_z	SC_x	AC_y	AC_z	AC_x	GH_y	GH_z	GH_yy	EL_x	PS_y
       0.0              -35.98           7.38          5.509          52.66          -6.43          -7.03          -70.9         -6.524         -93.71          115.5          10.61
  0.009663              -35.98          7.379          5.513          52.66          -6.43         -7.032         -70.87         -6.513         -93.71          115.5          10.62
   0.01933              -35.98          7.378          5.519          52.66          -6.43         -7.033         -70.83         -6.502         -93.71          115.5          10.63
   0.02899              -35.98          7.377          5.524          52.66         -6.429         -7.035          -70.8          -6.49          -93.7          115.5          10.65
   0.03865              -35.97          7.377           5.53          52.66         -6.429         -7.038         -70.75         -6.477          -93.7          115.5          10.66
   0.04831              -35.97          7.376          5.536          52.66         -6.429          -7.04         -70.71         -6.463          -93.7          115.5          10.67
   0.05798              -35.97          7.375          5.543          52.66         -6.428         -7.043         -70.66         -6.448         -93.69          115.5          10.69
   0.06764              -35.97          7.374           5.55          52.66         -6.428         -7.045         -70.61         -6.432         -93.69          115.5          10.71
    0.0773              -35.97          7.372          5.557          52.67         -6.428         -7.048         -70.56         -6.415         -93.68          115.5          10.72
   0.08696              -35.96          7.371          5.565          52.67         -6.427         -7.051          -70.5         -6.397         -93.68          115.5          10.74
   0.09663              -35.96           7.37          5.574          52.67         -6.427         -7.054         -70.44         -6.377         -93.67          115.5          10.76
    0.1063              -35.96          7.368          5.583          52.67         -6.426         -7.058         -70.38         -6.356         -93.66          115.5          10.78
     0.116              -35.96          7.367          5.593          52.67         -6.426         -7.062         -70.31         -6.333         -93.66          115.5          10.81
    0.1256              -35.95          7.365          5.604          52.67         -6.425         -7.066         -70.23         -6.309         -93.65          115.5          10.83
    0.1353              -35.95          7.363          5.616          52.67         -6.424          -7.07         -70.15         -6.282         -93.64          115.6          10.86
    0.1449              -35.95          7.361          5.629          52.67         -6.424         -7.075         -70.06         -6.253         -93.63          115.6          10.89
    0.1546              -35.94          7.359          5.643          52.67         -6.423          -7.08         -69.96         -6.222         -93.62          115.6          10.92
    0.1643              -35.94          7.357          5.658          52.67         -6.422         -7.086         -69.85         -6.188         -93.61          115.6          10.96
    0.1739              -35.93          7.355          5.674          52.67         -6.421         -7.092         -69.73          -6.15          -93.6          115.6           11.0
    0.1836              -35.93          7.352          5.692          52.68          -6.42         -7.099         -69.61         -6.109         -93.59          115.6          11.04
    0.1933              -35.92          7.349          5.712          52.68         -6.419         -7.107         -69.47         -6.065         -93.58          115.6          11.08
    0.2029              -35.92          7.345          5.734          52.68         -6.418         -7.115         -69.31         -6.015         -93.56          115.6          11.13
    0.2126              -35.91          7.342          5.758          52.68         -6.417         -7.124         -69.14         -5.961         -93.55          115.6          11.19
    0.2222               -35.9          7.338          5.785          52.68         -6.415         -7.134         -68.95           -5.9         -93.53          115.6          11.25
    0.2319              -35.89          7.333          5.815          52.68         -6.414         -7.145         -68.74         -5.833         -93.51          115.6          11.32
    0.2416              -35.88          7.328          5.848          52.69         -6.412         -7.158         -68.51         -5.758         -93.49          115.6           11.4
    0.2512              -35.87          7.322          5.885          52.69          -6.41         -7.172         -68.25         -5.674         -93.46          115.6          11.48
    0.2609              -35.86          7.316          5.927          52.69         -6.408         -7.188         -67.95          -5.58         -93.44          115.6          11.58
    0.2706              -35.85          7.309          5.974           52.7         -6.405         -7.206         -67.62         -5.473          -93.4          115.6          11.69
    0.2802              -35.83          7.301          6.028           52.7         -6.402         -7.226         -67.24         -5.352         -93.37          115.6          11.81
    0.2899              -35.81          7.291          6.089          52.71         -6.399         -7.249         -66.81         -5.214         -93.33          115.6          11.96
    0.2995              -35.79          7.281          6.159          52.71         -6.395         -7.276         -66.31         -5.055         -93.28          115.6          12.12
    0.3092              -35.77          7.268           6.24          52.72         -6.391         -7.307         -65.74         -4.872         -93.23          115.6          12.31
    0.3189              -35.74          7.254          6.335          52.72         -6.386         -7.342         -65.07         -4.659         -93.17          115.6          12.53
    0.3285              -35.71          7.237          6.445          52.73          -6.38         -7.384         -64.29          -4.41         -93.09          115.7          12.78
    0.3382              -35.67          7.217          6.575          52.74         -6.373         -7.433         -63.38         -4.117         -93.01          115.7          13.08
    0.3479              -35.63          7.194           6.73          52.75         -6.365         -7.492         -62.29         -3.768          -92.9          115.7          13.44
    0.3575              -35.58          7.166          6.915          52.77         -6.355         -7.562         -60.98          -3.35         -92.78          115.7          13.87
    0.3672              -35.51          7.132          7.139          52.78         -6.343         -7.646          -59.4         -2.844         -92.63          115.8          14.39
    0.3768              -35.44           7.09          7.413           52.8         -6.328          -7.75         -57.47         -2.226         -92.45          115.8          15.03
    0.3865              -35.34          7.038          7.751          52.83          -6.31         -7.878         -55.08         -1.463         -92.23          115.8          15.81
    0.3962              -35.22          6.974          8.172          52.86         -6.287         -8.037         -52.11        -0.5116         -91.95          115.9          16.79
    0.4058              -35.07          6.893          8.703           52.9         -6.259         -8.238         -48.36         0.6866         -91.59          116.0          18.02
    0.4155              -34.87          6.791          9.377          52.95         -6.222         -8.493          -43.6           2.21         -91.15          116.0          19.58
    0.4252              -34.63          6.659          10.24          53.01         -6.176          -8.82         -37.51          4.159         -90.57          116.2          21.58
    0.4348              -34.31          6.491          11.35           53.1         -6.117         -9.239         -29.69          6.661         -89.84          116.3          24.15
    0.4445               -33.9          6.275          12.76           53.2         -6.041         -9.775          -19.7          9.857          -88.9          116.5          27.43
    0.4541              -33.39          6.004          14.54          53.33         -5.945         -10.45         -7.135          13.88         -87.72          116.7          31.56
    0.4638              -32.77          5.674          16.71           53.5         -5.829         -11.27          8.173          18.77         -86.28          117.0          36.59
    0.4735              -32.05          5.291          19.23          53.68         -5.694         -12.22          25.92          24.45         -84.61          117.3          42.42
    0.4831              -31.27          4.877          21.95          53.89         -5.548         -13.25          45.13           30.6         -82.81          117.7          48.73
    0.4928              -30.49          4.462          24.67          54.09         -5.402         -14.28          64.34          36.74          -81.0          118.1          55.04
    0.5025              -29.77          4.079          27.19          54.28         -5.267         -15.23          82.08          42.42         -79.34          118.4          60.87
    0.5121              -29.15          3.749          29.36          54.44          -5.15         -16.05          97.39          47.31          -77.9          118.7           65.9
    0.5218              -28.64          3.478          31.14          54.57         -5.055         -16.73          110.0          51.33         -76.72          118.9          70.03
    0.5314              -28.24          3.263          32.55          54.68         -4.979         -17.26          119.9          54.53         -75.78          119.1          73.31
    0.5411              -27.92          3.094          33.66          54.76         -4.919         -17.68          127.8          57.03         -75.04          119.2          75.88
    0.5508              -27.67          2.963          34.52          54.82         -4.873         -18.01          133.9          58.98         -74.47          119.4          77.88
    0.5604              -27.48           2.86           35.2          54.87         -4.837         -18.26          138.6           60.5         -74.02          119.4          79.45
    0.5701              -27.33          2.779          35.73          54.91         -4.808         -18.46          142.4           61.7         -73.67          119.5          80.68
    0.5798              -27.21          2.715          36.15          54.94         -4.785         -18.62          145.3          62.65         -73.39          119.6          81.66
    0.5894              -27.11          2.663          36.49          54.97         -4.767         -18.75          147.7          63.42         -73.17          119.6          82.44
    0.5991              -27.03          2.622          36.76          54.99         -4.753         -18.85          149.7          64.03         -72.98          119.7          83.07
    0.6088              -26.97          2.588          36.99          55.01         -4.741         -18.94          151.2          64.54         -72.84          119.7          83.59
    0.6184              -26.92           2.56          37.17          55.02         -4.731         -19.01          152.5          64.96         -72.71          119.7          84.02
